# xmcd
#
# Track frame offsets:
#	150
#	11137
#	34925
#	44412
#	53350
#	70125
#	89582
#	98505
#	108895
#	123685
#	133667
#	148812
#	161675
#	172540
#	183867
#	196140
#	210997
#	221262
#	236880
#	251740
#
# Disc length: 3488 seconds
#
# Revision: 0
# Processed by: cddbd v1.5.2PL0 Copyright (c) Steve Scherf et al.
# Submitted via: EasyCDDAExtractor 10.0.2.1
#
DISCID=130d9e14
DTITLE=Serenity - God Sent Angels
DYEAR=2000
DGENRE=Gospel
TTITLE0=Angels Camping All Around Me
TTITLE1=Earth's Loss Is Heaven's Gain
TTITLE2=Smooth Sailing
TTITLE3=When Judgement Reaches Home
TTITLE4=King Of It All
TTITLE5=God Sent Angels
TTITLE6=I'll Put On A Crown
TTITLE7=God's Been There Before
TTITLE8=Lights Of Home
TTITLE9=Coming Full Circle
TTITLE10=He's Alive
TTITLE11=Walk Dem Golden Stairs
TTITLE12=When The Son Of Life Goes Down
TTITLE13=My Lord Said Send A Moses
TTITLE14=Hold On A Little Longer
TTITLE15=Worth All My Trials
TTITLE16=He Holds The Keys
TTITLE17=It'll Be Worth It After All
TTITLE18=When He Was On The Cross
TTITLE19=It'll Be Different The Next Time
EXTD=
EXTT0=
EXTT1=
EXTT2=
EXTT3=
EXTT4=
EXTT5=
EXTT6=
EXTT7=
EXTT8=
EXTT9=
EXTT10=
EXTT11=
EXTT12=
EXTT13=
EXTT14=
EXTT15=
EXTT16=
EXTT17=
EXTT18=
EXTT19=
PLAYORDER=
